<?xml version="1.0" encoding="UTF-8"?>
<svg id="Layer_1" data-name="Layer 1" xmlns="http://www.w3.org/2000/svg" viewBox="0 0 256 256">
  <path d="M207.21,158.06c.69,18.47.68,36.92-2.29,55.24-.76,4.69-1.97,9.27-3.48,13.78-2.48,7.37-7.34,12.35-14.48,15.32-7.76,3.23-15.89,4.86-24.16,5.96-11.53,1.54-23.12,1.96-37.44,1.89-5.39.01-13.47-.22-21.55-.79-.98-.07-1.68-.04-1.29-1.47,5.68-20.83,12.12-41.38,21.68-60.82,1.37-2.78,3-5.44,4.51-8.15,5.38-9.68,13.69-15.47,24.2-18.47,7.7-2.2,15.55-3.47,23.5-4.11,9.66-.77,19.32-.81,28.99-.25,1.38.08,1.75.56,1.8,1.87ZM219.95,83.29h-10.48l1.86,37.92-3.11-3.01c-.25,7.32-.62,14.64-.91,21.96-.05,1.18-.27,2.02-1.72,1.29-.05-.02-.12-.01-.18-.02-8.02-.09-15.96-1.79-23.99-1.48-8.54.32-17.12-.42-25.64.67-1.21.16-1.56.48-1.44,1.72.49,4.86-2.59,9.23-7.15,10.3-4.98,1.17-9.77-1.27-11.44-6.05-.54-1.55-1.08-1.57-2.46-1.05-7.44,2.83-12.75,7.87-16.27,14.98-4.81,9.69-7.59,20.02-9.89,30.51-3.23,14.73-5.29,29.64-6.72,44.64-.39,4.14-.72,8.29-1.08,12.43-.02.27.05.6-.46.85-3.47-5.75-6.62-13.11-9.62-21.08l-8.51,19.08-33.54,5.41-8.11-44.36-31.92-26.51,19.31-15.65-19.69-16.89,27.6-6.85-30.62-9.47,35.05-4.23-18.94-16.12,19.34,3.22.81-4.03-5.64-5.24,6.85.4,2.22-5.64-6.7,4.23-2.01-.35,2.37-9.62,7.5-6.35.35-1.96-14.61,8.31-1.06.05,15.16-27.95h8.46l-.81-3.22h1.41l2.01,1.41.81-.6-5.44-17.33,18.74-20.15,4.84-2.82h5.44l-3.22,14.71s5.64-10.27,28-10.07c9.13.08,35.86,6.85,35.86,6.85l15.92-25.79,4.83-2.82,24.78-4.03-14.51,15.51,5.84-3.63,51.98,6.85-17.13,6.04,27.2,20.55-20.95,2.22,33.24,43.11-31.83-10.88ZM71.2,179.46c-.2-.41-.4-.82-.61-1.21h0l.61,1.21Z"/>
</svg>